<?xml version="1.0" encoding="iso-8859-1"?>
<!-- Uploaded to: SVG Repo, www.svgrepo.com, Generator: SVG Repo Mixer Tools -->
<svg version="1.1" id="Layer_1" xmlns="http://www.w3.org/2000/svg" xmlns:xlink="http://www.w3.org/1999/xlink" 
	 viewBox="0 0 346.997 346.997" xml:space="preserve">
<g id="XMLID_1498_">
	<g id="XMLID_1499_">
		<path id="XMLID_1500_" style="fill:#FFA250;" d="M343.635,9.906c-2.172-2.172-5.06-3.368-8.132-3.368s-5.96,1.196-8.132,3.368
			L158.373,178.904c-4.484,4.483-4.484,11.78,0,16.264c2.172,2.172,5.06,3.368,8.131,3.368s5.959-1.196,8.131-3.368l169-169
			C348.118,21.685,348.118,14.389,343.635,9.906z"/>
		<path id="XMLID_1501_" style="fill:#FFA250;" d="M283.635,9.906c-2.172-2.172-5.06-3.368-8.132-3.368s-5.96,1.196-8.132,3.368
			L98.373,178.904c-2.172,2.172-3.369,5.06-3.369,8.132s1.196,5.96,3.369,8.132c2.172,2.172,5.06,3.368,8.131,3.368
			s5.959-1.196,8.131-3.368l169-169C288.118,21.685,288.118,14.389,283.635,9.906z"/>
	</g>
	<g id="XMLID_1502_">
		<path id="XMLID_1503_" style="fill:#5FD2DB;" d="M190.87,340.46h-35.74c-47.297,0-87.286-35.015-93.533-81.897L42.507,115.28
			h260.987l-19.09,143.283C278.157,305.445,238.167,340.46,190.87,340.46z"/>
		<path id="XMLID_1504_" style="fill:#FFE165;" d="M60.466,115.279L60.466,115.279c20.218,25.983,51.298,41.179,84.221,41.179
			h56.626c32.923,0,64.002-15.196,84.221-41.179l0,0C285.534,115.279,60.466,115.279,60.466,115.279z"/>
		<path id="XMLID_1816_" style="fill:#FFE165;" d="M334,119.458H12c-6.627,0-12-5.373-12-12l0,0c0-6.627,5.373-12,12-12h322
			c6.627,0,12,5.373,12,12l0,0C346,114.086,340.627,119.458,334,119.458z"/>
		<g id="XMLID_1505_">
			<circle id="XMLID_1506_" style="fill:#FFFEB9;" cx="173" cy="241.298" r="40.67"/>
			<rect id="XMLID_581_" x="113.635" y="217.608" style="fill:#FFFEB9;" width="118.73" height="47.38"/>
		</g>
	</g>
</g>
</svg>